<?xml version="1.0" standalone="no"?>
<!DOCTYPE svg PUBLIC "-//W3C//DTD SVG 20010904//EN"
 "http://www.w3.org/TR/2001/REC-SVG-20010904/DTD/svg10.dtd">
<svg version="1.0" xmlns="http://www.w3.org/2000/svg"
 width="512.000000pt" height="512.000000pt" viewBox="0 0 512.000000 512.000000"
 preserveAspectRatio="xMidYMid meet">
<metadata>
Created by potrace 1.14, written by Peter Selinger 2001-2017
</metadata>
<g transform="translate(0.000000,512.000000) scale(0.100000,-0.100000)"
fill="#000000" stroke="none">
<path d="M1213 5100 c-42 -17 -82 -51 -217 -186 -140 -140 -166 -171 -166
-195 0 -36 41 -78 73 -75 38 4 58 21 202 166 189 190 217 198 329 90 l61 -59
-130 -132 c-144 -145 -130 -137 -478 -293 -78 -35 -178 -81 -222 -101 -44 -20
-94 -43 -112 -51 -76 -34 -132 -141 -120 -229 10 -66 29 -97 118 -185 83 -83
115 -100 153 -82 21 9 30 3 91 -58 37 -37 65 -73 61 -78 -3 -6 -8 -25 -10 -42
-3 -30 13 -49 264 -300 223 -223 275 -270 312 -283 87 -29 189 -4 244 61 13
14 36 53 53 88 l30 62 37 -33 c99 -91 254 -112 375 -49 19 9 126 108 239 219
230 228 209 216 378 220 53 1 103 3 110 4 7 0 21 15 31 32 24 40 11 86 -29
103 -30 12 -202 14 -264 2 -81 -15 -129 -52 -322 -245 -117 -116 -206 -197
-227 -206 -44 -18 -114 -19 -145 -2 -28 16 -112 96 -112 108 0 4 13 36 29 71
16 35 40 88 54 118 111 243 95 220 258 383 83 83 155 162 160 175 25 66 8 105
-84 193 l-49 46 91 23 c77 19 95 27 121 56 32 37 39 80 20 128 -10 26 -359
382 -402 410 -54 35 -125 23 -164 -27 -11 -14 -29 -61 -39 -106 -10 -45 -20
-81 -23 -81 -2 0 -74 70 -160 155 -97 96 -172 163 -200 176 -63 31 -153 34
-219 9z"/>
<path d="M2691 3379 c-34 -20 -56 -69 -47 -105 4 -15 27 -62 52 -104 24 -42
44 -79 44 -82 0 -3 -12 -9 -27 -13 -15 -3 -35 -16 -45 -27 -21 -25 -18 -16
-24 -58 -4 -31 12 -64 137 -280 77 -135 151 -263 164 -285 12 -22 45 -79 73
-127 l51 -88 -107 -1 c-128 -1 -132 -1 -176 -28 -55 -35 -79 -84 -81 -171 l-2
-75 -63 -6 c-81 -8 -115 -39 -114 -103 1 -38 12 -59 87 -166 48 -68 87 -128
88 -134 0 -6 2 -49 3 -95 3 -74 6 -87 26 -103 12 -10 28 -18 35 -18 10 0 13
-24 13 -98 0 -98 0 -98 -28 -110 -16 -7 -32 -21 -36 -30 -4 -9 -9 -143 -10
-297 -1 -154 -3 -285 -3 -292 -1 -9 -58 -13 -212 -15 l-211 -3 -34 -37 c-19
-21 -34 -48 -35 -60 -7 -168 -3 -266 14 -300 36 -73 -45 -68 1227 -68 1260 0
1179 -4 1220 63 17 28 20 51 20 170 0 154 -7 179 -62 219 -18 12 -34 22 -35
20 -2 -1 -92 -2 -201 -2 l-199 0 0 135 0 135 131 1 c146 1 165 3 204 23 48 25
81 60 103 110 20 46 21 63 21 390 0 324 -1 344 -20 382 -11 21 -33 52 -48 68
-55 55 -77 60 -240 64 l-151 4 0 148 c-1 168 -12 203 -80 250 -33 23 -48 25
-165 29 -70 1 -128 5 -128 8 0 5 41 80 72 130 14 21 28 45 31 53 4 8 15 29 25
45 10 17 30 50 44 75 14 25 74 128 133 229 58 101 109 198 112 216 3 19 -1 44
-10 61 -16 30 -69 68 -81 57 -15 -15 -4 13 22 56 16 25 32 53 36 61 4 8 13 26
21 40 24 41 19 86 -14 122 l-29 33 -414 2 c-269 1 -422 -1 -440 -8 -14 -6 -32
-23 -38 -39 -11 -28 -12 -28 -104 -28 -92 0 -93 1 -110 30 -10 16 -28 33 -40
38 -12 4 -88 8 -169 7 -120 0 -153 -4 -176 -18z m1785 -1772 l27 -24 0 -316
c0 -336 -3 -359 -47 -371 -11 -3 -76 -6 -142 -6 l-121 0 0 370 0 370 128 0
c120 0 130 -2 155 -23z"/>
</g>
</svg>
